<?xml version="1.0" encoding="UTF-8" standalone="no"?>

<svg
   width="34.527248mm"
   height="11.240188mm"
   viewBox="0 0 34.527248 11.240188"
   version="1.1"
   id="svg1"
   xmlns="http://www.w3.org/2000/svg"
   xmlns:svg="http://www.w3.org/2000/svg">
  <defs
     id="defs1" />
  <g
     id="layer1">
    <path
       style="fill:none;fill-opacity:0;stroke:#e3e3f0;stroke-width:0.417875;stroke-linecap:round;stroke-dasharray:none;stroke-opacity:1"
       d="m 0.2089375,8.8209631 c 0.472171,-0.8213935 0.989709,-1.6533205 1.645921,-2.4297525 0.05442,-0.06439 -0.04918,0.141459 -0.07991,0.211285 -0.178085,0.404843 -0.897836,1.752995 -0.76703,2.0359955 0.03507,0.07587 0.116488,-0.1410675 0.175781,-0.2112845 0.240395,-0.284698 0.478521,-0.570088 0.719092,-0.854733 0.05179,-0.06128 0.06465,-0.220597 0.159798,-0.182469 0.04784,0.01916 -0.367537,1.5624385 -0.367537,1.6038235 0,0.0365 0.02561,-0.0717 0.04794,-0.10564 0.15893,-0.241599 0.322309,-0.4822155 0.495371,-0.7202795 0.306384,-0.421468 0.629178,-0.838558 0.942808,-1.258096 0.181744,-0.24312 0.305803,-0.504796 0.543308,-0.729881 0.102414,-0.09706 -0.07741,0.225264 -0.127834,0.336131 -0.168025,0.369448 -0.343378,0.737732 -0.527332,1.10443 -0.354056,0.705771 -0.726731,1.4081215 -1.086626,2.1128235 -0.48942,0.9583139 -0.285408,0.5095839 -0.543312,1.1812639 -0.01481,0.03859 -0.0774,0.150664 -0.04794,0.115247 0.401557,-0.482684 0.426159,-1.0490519 0.687132,-1.5654119 1.135008,-2.2457245 1.643604,-3.3178575 3.084099,-5.2628585 0.496134,-0.669899 1.449679,-1.752101 2.029433,-2.448956 0.142768,-0.171607 0.277966,-0.345454 0.415475,-0.518607 0.08621,-0.108561 0.168013,-0.218385 0.255676,-0.32652803 0.01359,-0.01678 0.05445,-0.06627 0.04794,-0.04802 -0.169274,0.47474103 -0.556154,0.91411903 -0.910852,1.34452303 -0.813063,0.986599 -1.731994,1.985581 -2.34903,3.025185 -0.289116,0.487115 -0.468411,0.995565 -0.671153,1.498184 -0.157379,0.390167 -0.107252,0.908217 -0.495367,1.258096 -0.0207,0.01864 -0.0068,-0.0452 0,-0.06723 0.05624,-0.182539 0.151054,-0.366508 0.223715,-0.547415 0.125349,-0.312104 0.425473,-0.582602 0.63919,-0.873943 0.131493,-0.179255 0.546776,-0.856267 0.703113,-1.008389 0.103959,-0.101161 0.932467,-0.282811 1.006724,-0.07683 0.165956,0.46033 -1.527087,1.807992 -2.10933,1.968771 -0.08355,0.02307 -0.07819,-0.111081 -0.04794,-0.163266 0.139333,-0.240291 0.879256,-0.91439 1.054663,-1.07562 1.509606,-1.387579 2.969775,-2.786555 4.3944398,-4.206444 0.354278,-0.353087 0.7120407,-0.704909 1.0706497,-1.05641203 0.08883,-0.08708 0.328817,-0.355494 0.271654,-0.259305 C 10.225421,1.4039436 9.5615963,2.1413546 9.0457463,2.9146516 c -0.9842388,1.475443 -1.9336478,2.959198 -2.9083148,4.436933 -0.727019,1.102259 -0.947831,1.4149175 -1.502102,2.4297515 -0.05522,0.101107 -0.09896,0.204375 -0.143819,0.3073169 -0.01375,0.03158 -0.05879,0.124421 -0.03196,0.09604 0.158868,-0.168041 0.287635,-0.3457349 0.431452,-0.5186019 0.484718,-0.502596 0.959997,-1.008526 1.45416,-1.5077915 0.491321,-0.496388 0.993423,-0.988943 1.502095,-1.478978 0.215824,-0.207915 0.44944,-0.408974 0.671152,-0.614638 0.379156,-0.351707 -0.438781,0.611 -0.719086,1.008395 -0.243599,0.345357 -0.47036,0.695053 -0.687134,1.04681 -0.04982,0.08083 -0.24976,0.226019 -0.111852,0.249697 0.05995,0.01029 1.679285,-1.223696 1.869635,-1.363736 0.05718,-0.04207 0.1952328,-0.16953 0.1917588,-0.115243 -0.02066,0.322944 -0.6979178,0.841514 -0.5912548,1.162053 0.06613,0.198756 2.7537265,-1.484761 2.9722385,-1.536598 0.159182,-0.03777 0.0645,0.321696 0.127842,0.557017 0.07842,0.291353 -0.0062,0.643507 0.319594,0.864339 0.45213,0.306459 1.124229,0.576223 1.805712,0.576223 4.07081,0 13.661525,-7.496167 7.798133,-8.24962803 -1.037203,-0.133283 -2.207252,-0.01589 -3.14801,0.27851 -3.742455,1.17118003 -7.32036,3.21623603 -7.909996,5.84868703 -0.02469,0.110278 -0.369756,2.3890405 0.351558,2.8811285 1.25095,0.8534159 5.91813,-2.4211945 5.99242,-2.4681655 0.572377,-0.361911 1.130689,-0.734135 1.629929,-1.133246 0.07472,-0.05973 0.164286,-0.265005 0.06393,-0.220883 -1.442872,0.634342 -2.848984,1.30296 -4.170725,2.026394 -0.77249,0.42281 -1.430147,0.916917 -2.093351,1.4021455 -0.197144,0.144238 -0.775941,0.535659 -0.479391,0.480187 1.840508,-0.344294 3.509873,-0.9613145 5.305283,-1.3829425 5.211851,-1.223927 11.672536,-3.031941 17.290135,-1.48858"
       id="path33" />
  </g>
</svg>
